<?xml version="1.0" encoding="iso-8859-1"?>
<!-- Generator: Adobe Illustrator 19.0.0, SVG Export Plug-In . SVG Version: 6.00 Build 0)  -->
<svg version="1.1" id="Capa_1" xmlns="http://www.w3.org/2000/svg" xmlns:xlink="http://www.w3.org/1999/xlink" x="0px" y="0px"
	 viewBox="0 0 512 512" style="enable-background:new 0 0 512 512;" xml:space="preserve">
<path style="fill:#E6E6E6;" d="M145.067,42.667h221.867c14.14,0,25.6,11.46,25.6,25.6v375.467c0,14.14-11.46,25.6-25.6,25.6H145.067
	c-14.14,0-25.6-11.46-25.6-25.6V68.267C119.467,54.127,130.927,42.667,145.067,42.667z"/>
<rect x="119.467" y="110.933" style="fill:#29ABE2;" width="273.067" height="290.133"/>
<path style="fill:#666666;" d="M307.2,221.867h-17.067v-34.133c0-18.85-15.283-34.133-34.133-34.133
	c-18.85,0-34.133,15.283-34.133,34.133v34.133H204.8v-34.133c0-28.279,22.921-51.2,51.2-51.2c28.279,0,51.2,22.921,51.2,51.2
	V221.867z"/>
<rect x="187.733" y="213.333" style="fill:#808080;" width="136.533" height="119.467"/>
<path style="fill:#FBB03B;" d="M281.6,264.533c0.06-14.14-11.358-25.651-25.498-25.702c-14.14-0.06-25.651,11.358-25.702,25.498
	c-0.043,10.889,6.801,20.617,17.067,24.243V307.2h17.067v-18.637C274.722,284.962,281.557,275.345,281.6,264.533z M256,273.067
	c-4.71,0-8.533-3.823-8.533-8.533c0-4.71,3.823-8.533,8.533-8.533c4.71,0,8.533,3.823,8.533,8.533
	C264.533,269.244,260.71,273.067,256,273.067z"/>
<g>
	<rect x="247.467" y="426.667" style="fill:#999999;" width="17.067" height="17.067"/>
	<rect x="230.4" y="68.267" style="fill:#999999;" width="17.067" height="17.067"/>
	<rect x="264.533" y="68.267" style="fill:#999999;" width="17.067" height="17.067"/>
</g>
<g>
	<rect x="247.467" y="358.4" style="fill:#FBB03B;" width="17.067" height="17.067"/>
	<rect x="281.6" y="358.4" style="fill:#FBB03B;" width="17.067" height="17.067"/>
	<rect x="315.733" y="358.4" style="fill:#FBB03B;" width="17.067" height="17.067"/>
	<rect x="179.2" y="358.4" style="fill:#FBB03B;" width="17.067" height="17.067"/>
	<rect x="213.333" y="358.4" style="fill:#FBB03B;" width="17.067" height="17.067"/>
</g>
<g>
	<path style="fill:#B3B3B3;" d="M93.867,170.667H76.8V59.733C76.834,26.761,103.561,0.034,136.533,0H179.2v17.067h-42.667
		c-23.552,0.026-42.641,19.115-42.667,42.667V170.667z"/>
	<rect x="76.8" y="187.733" style="fill:#B3B3B3;" width="17.067" height="17.067"/>
	<path style="fill:#B3B3B3;" d="M375.467,512H358.4v-17.067h17.067c23.552-0.026,42.641-19.115,42.667-42.667v-153.6H435.2v153.6
		C435.166,485.239,408.439,511.966,375.467,512z"/>
	<rect x="418.133" y="264.533" style="fill:#B3B3B3;" width="17.067" height="17.067"/>
</g>
<g>
</g>
<g>
</g>
<g>
</g>
<g>
</g>
<g>
</g>
<g>
</g>
<g>
</g>
<g>
</g>
<g>
</g>
<g>
</g>
<g>
</g>
<g>
</g>
<g>
</g>
<g>
</g>
<g>
</g>
</svg>
